<?xml version="1.0" encoding="UTF-8" ?>
<!DOCTYPE svg PUBLIC "-//W3C//DTD SVG 1.1//EN" "http://www.w3.org/Graphics/SVG/1.1/DTD/svg11.dtd">
<svg width="180pt" height="240pt" viewBox="0 0 180 240" version="1.1" xmlns="http://www.w3.org/2000/svg">
<g id="#ffffffff">
</g>
<g id="#000000ff">
<path fill="#000000" opacity="1.00" d=" M 90.25 0.00 L 90.64 0.00 C 94.83 9.70 101.48 19.40 111.80 23.23 C 119.46 26.02 127.16 28.83 134.33 32.76 C 144.24 38.09 152.64 45.66 161.30 52.72 C 166.61 57.05 173.47 58.44 180.00 59.78 L 180.00 60.95 L 179.99 59.80 C 175.16 65.29 169.62 70.68 162.32 72.52 C 181.11 100.29 181.06 139.44 162.32 167.23 C 169.58 169.00 174.77 174.50 180.00 179.42 L 180.00 180.63 L 179.31 180.54 C 172.82 181.03 166.36 183.25 161.16 187.22 C 155.77 191.48 150.80 196.29 145.09 200.15 C 135.04 207.47 123.57 212.55 111.87 216.62 C 101.37 220.34 94.78 230.20 90.56 240.00 L 90.23 240.00 C 86.58 234.04 83.62 227.44 78.32 222.70 C 74.72 219.30 70.20 217.09 65.54 215.56 C 51.12 210.60 37.60 202.99 26.05 193.02 C 22.19 189.77 18.48 186.17 13.87 183.99 C 9.50 181.92 4.71 180.99 0.00 180.01 L 0.00 179.98 C 4.85 174.39 10.65 169.20 17.96 167.23 C -0.78 139.43 -0.83 100.28 17.97 72.49 C 10.59 70.62 4.84 65.28 0.00 59.68 L 0.00 59.64 C 5.90 58.69 11.98 57.45 17.05 54.09 C 21.75 50.81 25.87 46.77 30.44 43.31 C 38.14 36.97 46.75 31.74 56.00 27.99 C 63.06 24.77 71.14 23.38 77.11 18.11 C 83.09 13.38 86.22 6.27 90.25 0.00 M 79.59 23.43 C 72.07 29.29 62.51 31.15 54.06 35.18 C 47.02 38.34 40.56 42.63 34.52 47.40 C 27.21 53.32 20.29 60.12 11.25 63.35 C 14.53 65.18 18.06 67.16 21.96 66.83 C 26.90 66.47 31.50 64.36 35.77 62.00 C 37.87 64.11 39.69 67.37 43.06 67.31 C 47.80 64.76 51.17 60.21 56.02 57.75 C 61.90 53.77 69.39 54.34 76.08 55.27 C 81.55 56.10 86.20 59.38 90.12 63.11 C 93.70 59.86 97.68 56.73 102.51 55.65 C 107.58 54.54 112.89 54.27 118.02 55.09 C 125.24 56.84 130.44 62.49 136.16 66.80 C 139.76 68.56 142.31 64.26 144.44 62.02 C 148.98 64.38 153.81 66.72 159.03 66.84 C 162.68 67.00 165.90 65.08 168.99 63.42 C 161.61 60.56 155.41 55.60 149.50 50.47 C 139.93 42.21 128.98 35.46 116.96 31.42 C 107.88 28.44 98.82 23.83 93.18 15.83 C 92.04 14.67 91.48 12.66 89.94 12.08 C 86.83 16.14 83.88 20.48 79.59 23.43 M 45.98 72.54 C 41.89 74.55 37.80 71.72 34.62 69.35 C 30.91 71.17 27.03 73.00 22.76 72.69 C 3.33 100.10 3.11 139.63 22.79 166.97 C 27.00 167.07 30.89 168.71 34.57 170.61 C 37.64 167.95 42.03 165.50 46.08 167.55 C 51.93 170.97 56.21 177.02 62.90 179.02 C 67.53 179.82 72.36 179.49 76.95 178.53 C 82.54 177.11 86.10 172.24 90.12 168.51 C 94.11 172.14 97.58 176.90 103.02 178.40 C 107.58 179.49 112.39 179.76 117.02 179.10 C 123.95 177.21 128.41 171.01 134.42 167.50 C 138.44 165.51 142.70 168.05 145.76 170.62 C 149.43 168.50 153.48 167.18 157.71 166.82 C 177.14 139.48 176.93 100.12 157.65 72.76 C 153.42 72.85 149.43 71.37 145.77 69.36 C 142.51 71.58 138.46 74.61 134.37 72.52 C 128.33 69.04 123.87 62.86 116.97 60.89 C 112.19 60.24 107.22 60.49 102.56 61.74 C 97.37 63.40 93.97 67.91 90.14 71.50 C 86.26 67.88 82.83 63.27 77.55 61.64 C 73.18 60.49 68.57 60.39 64.08 60.73 C 56.73 62.26 52.26 69.03 45.98 72.54 M 11.22 176.36 C 22.74 180.75 30.95 190.29 40.93 197.11 C 46.49 201.12 52.72 204.05 58.99 206.75 C 66.41 209.85 74.53 211.89 80.76 217.25 C 84.50 220.21 87.20 224.18 89.95 228.02 C 92.45 225.90 93.81 222.57 96.28 220.31 C 101.73 214.18 109.51 211.06 117.07 208.41 C 125.25 205.24 133.34 201.59 140.42 196.35 C 149.93 189.68 157.89 180.52 169.06 176.47 C 166.36 174.70 163.38 173.20 160.10 173.04 C 154.40 172.41 149.20 175.27 144.42 177.98 C 142.37 175.81 140.47 172.46 137.03 172.74 C 132.41 175.46 128.92 179.81 124.06 182.21 C 117.79 186.08 110.06 185.30 103.11 184.36 C 98.00 183.55 93.83 180.27 90.13 176.89 C 86.68 180.06 82.84 183.16 78.14 184.15 C 73.47 185.08 68.64 185.32 63.91 184.89 C 56.18 183.88 50.44 178.15 44.63 173.52 C 40.96 170.95 38.00 175.65 35.79 177.99 C 32.93 176.37 30.05 174.68 26.88 173.74 C 21.58 171.95 15.80 173.41 11.22 176.36 Z" />
<path fill="#000000" opacity="1.00" d=" M 88.06 31.20 C 94.81 29.47 101.64 36.48 99.66 43.19 C 98.16 50.25 88.23 52.89 83.28 47.72 C 77.61 42.78 80.76 32.50 88.06 31.20 Z" />
<path fill="#000000" opacity="1.00" d=" M 62.41 41.52 C 64.21 41.16 66.05 40.14 67.90 40.60 C 70.56 41.45 70.32 45.97 67.43 46.26 C 59.58 48.01 51.72 51.11 46.26 57.25 C 44.49 59.63 40.00 56.53 41.85 54.14 C 46.82 47.52 54.69 43.90 62.41 41.52 Z" />
<path fill="#000000" opacity="1.00" d=" M 111.33 41.31 C 111.74 41.10 112.56 40.66 112.97 40.44 C 122.42 42.21 132.07 46.28 138.29 53.88 C 140.05 55.86 137.25 58.92 134.98 57.98 C 133.02 56.59 131.53 54.65 129.59 53.24 C 124.78 49.55 118.88 47.76 113.07 46.34 C 110.65 46.19 109.61 42.92 111.33 41.31 Z" />
<path fill="#000000" opacity="1.00" d=" M 43.14 182.09 C 45.08 180.66 46.64 182.86 47.95 184.01 C 53.19 189.35 60.45 191.92 67.57 193.64 C 70.66 194.13 70.40 199.38 67.13 199.22 C 57.92 197.71 48.59 193.77 42.37 186.59 C 40.72 185.33 41.44 182.91 43.14 182.09 Z" />
<path fill="#000000" opacity="1.00" d=" M 134.25 182.27 C 136.40 180.11 140.39 183.99 138.23 186.20 C 132.25 193.45 123.06 197.36 114.02 199.13 C 110.25 200.36 109.13 194.04 112.89 193.58 C 120.89 191.86 128.61 188.34 134.25 182.27 Z" />
<path fill="#000000" opacity="1.00" d=" M 87.48 189.62 C 94.21 187.42 101.69 194.25 99.68 201.18 C 98.50 208.27 88.74 211.71 83.64 206.42 C 77.91 201.67 80.15 191.31 87.48 189.62 Z" />
</g>
</svg>
